<?xml version="1.0" encoding="UTF-8"?>
<svg id="Layer_1" data-name="Layer 1" xmlns="http://www.w3.org/2000/svg" viewBox="0 0 300 300">
  <defs>
    <style>
      .cls-1 {
        fill: #1f1e21;
      }
    </style>
  </defs>
  <g>
    <path class="cls-1" d="M101.48,143.54c-1.29-1.13-3.93-2.64-7.64-2.64-2.85,0-6.2,1.07-6.2,4.2s3.78,3.25,7.31,3.44c3.44.21,9.05.52,9.05,5.56,0,4.42-4.27,6.35-9.11,6.35s-7.89-2.06-9.91-4.02l.95-1.07c1.78,1.72,4.54,3.75,8.99,3.75,4.05,0,7.52-1.5,7.52-4.82,0-3.65-4.14-4.02-7.49-4.23-4.17-.21-8.87-.49-8.87-4.82s4.36-5.68,7.83-5.68c3.99,0,7.06,1.66,8.53,2.92l-.95,1.07Z"/>
    <path class="cls-1" d="M94.88,160.85c-5.32,0-8.37-2.36-10.2-4.13l-.28-.27,1.48-1.68.3.29c1.62,1.56,4.28,3.63,8.72,3.63,3.44,0,7.12-1.16,7.12-4.42s-3.36-3.59-7.11-3.83c-4.12-.21-9.25-.48-9.25-5.22,0-4.49,4.43-6.08,8.23-6.08s7.08,1.56,8.79,3.01l.31.27-1.49,1.68-.3-.27c-.68-.6-3.21-2.54-7.38-2.54-2.67,0-5.8,1-5.8,3.8,0,2.49,2.68,2.82,6.77,3.03h.15c3.59.23,9.44.6,9.44,5.97,0,4.98-4.92,6.76-9.52,6.76ZM85.53,156.41c1.76,1.64,4.59,3.64,9.36,3.64,4.21,0,8.71-1.56,8.71-5.95,0-4.61-5.17-4.94-8.59-5.15h-.24c-3.53-.2-7.53-.41-7.53-3.85s3.56-4.61,6.6-4.61c3.97,0,6.56,1.67,7.6,2.48l.41-.47c-1.66-1.28-4.52-2.56-7.95-2.56s-7.43,1.38-7.43,5.28c0,3.69,3.68,4.17,8.49,4.42,3.14.2,7.87.5,7.87,4.64,0,3.22-3.04,5.22-7.92,5.22-4.46,0-7.23-1.96-8.97-3.57l-.42.47Z"/>
  </g>
  <g>
    <path class="cls-1" d="M116.2,160.02v-20.04h10.5c2.33,0,4.05.58,5.34,1.93.98,1.01,1.5,2.27,1.5,3.65,0,1.5-.64,2.88-1.69,3.9-1.23,1.2-2.95,1.72-5.16,1.72h-8.93v8.84h-1.57ZM117.76,141.36v8.44h8.93c1.5,0,2.91-.24,4.02-1.32.8-.8,1.26-1.81,1.26-2.91,0-1.01-.37-1.93-1.13-2.73-.98-1.07-2.33-1.47-4.14-1.47h-8.93Z"/>
    <path class="cls-1" d="M118.17,160.43h-2.37v-20.85h10.9c2.5,0,4.29.65,5.63,2.06,1.06,1.09,1.61,2.45,1.61,3.93,0,1.57-.64,3.05-1.81,4.19-1.26,1.23-3.04,1.83-5.44,1.83h-8.53v8.84ZM116.6,159.62h.76v-8.84h9.34c2.17,0,3.77-.53,4.87-1.61,1.01-.98,1.57-2.26,1.57-3.61,0-1.27-.48-2.44-1.39-3.37-1.18-1.24-2.79-1.81-5.05-1.81h-10.1v19.24ZM126.7,150.2h-9.34v-9.25h9.34c2.03,0,3.44.51,4.44,1.6.82.86,1.24,1.87,1.24,3.01,0,1.19-.48,2.3-1.38,3.2-1.31,1.27-2.99,1.44-4.3,1.44ZM118.17,149.4h8.53c1.75,0,2.87-.36,3.74-1.21.74-.74,1.14-1.65,1.14-2.63,0-.92-.34-1.75-1.02-2.46-.86-.94-2.04-1.35-3.85-1.35h-8.53v7.63Z"/>
  </g>
  <g>
    <path class="cls-1" d="M191.09,156.68c-2.21,2.15-5.43,3.78-9.24,3.78-6.32,0-11.05-4.7-11.05-10.47s4.76-10.44,10.99-10.44c3.47,0,6.69,1.32,8.87,3.32l-1.04,1.07c-1.96-1.84-4.88-3.01-7.8-3.01-5.34,0-9.39,4.11-9.39,9.05s4.08,9.08,9.45,9.08c3.25,0,6.14-1.44,8.17-3.41l1.04,1.01Z"/>
    <path class="cls-1" d="M181.85,160.85c-6.42,0-11.45-4.77-11.45-10.87s5-10.84,11.39-10.84c3.44,0,6.77,1.25,9.14,3.42l.31.28-1.61,1.65-.29-.27c-1.94-1.82-4.75-2.9-7.52-2.9-5.04,0-8.99,3.8-8.99,8.65s3.98,8.68,9.05,8.68c2.85,0,5.73-1.2,7.89-3.29l.28-.27,1.62,1.57-.3.29c-2.58,2.51-5.96,3.89-9.52,3.89ZM181.79,139.95c-5.93,0-10.58,4.41-10.58,10.03s4.68,10.06,10.65,10.06c4.22,0,7.14-2,8.65-3.38l-.46-.45c-2.27,2.07-5.23,3.25-8.16,3.25-5.53,0-9.86-4.17-9.86-9.49s4.3-9.46,9.8-9.46c2.84,0,5.71,1.06,7.78,2.85l.48-.49c-2.2-1.87-5.2-2.94-8.29-2.94Z"/>
  </g>
  <g>
    <path class="cls-1" d="M199.92,139.98h16.94v1.38h-7.67v18.66h-1.56v-18.66h-7.71v-1.38Z"/>
    <path class="cls-1" d="M209.59,160.43h-2.37v-18.66h-7.7v-2.19h17.75v2.19h-7.67v18.66ZM208.02,159.62h.76v-18.66h7.67v-.58h-16.14v.58h7.7v18.66Z"/>
  </g>
  <g>
    <path class="cls-1" d="M242.47,143.54c-1.29-1.13-3.93-2.64-7.64-2.64-2.85,0-6.2,1.07-6.2,4.2s3.78,3.25,7.31,3.44c3.44.21,9.05.52,9.05,5.56,0,4.42-4.27,6.35-9.11,6.35s-7.89-2.06-9.91-4.02l.95-1.07c1.78,1.72,4.54,3.75,8.99,3.75,4.05,0,7.52-1.5,7.52-4.82,0-3.65-4.14-4.02-7.49-4.23-4.17-.21-8.87-.49-8.87-4.82s4.36-5.68,7.83-5.68c3.99,0,7.06,1.66,8.53,2.92l-.95,1.07Z"/>
    <path class="cls-1" d="M235.88,160.85c-5.32,0-8.37-2.36-10.19-4.13l-.28-.27,1.48-1.68.3.29c1.62,1.56,4.28,3.63,8.71,3.63,3.44,0,7.12-1.16,7.12-4.42s-3.36-3.59-7.11-3.83c-4.12-.21-9.25-.48-9.25-5.22,0-4.49,4.43-6.08,8.23-6.08s7.09,1.56,8.79,3.01l.31.27-1.49,1.68-.3-.27c-.68-.6-3.21-2.54-7.38-2.54-2.67,0-5.8,1-5.8,3.8,0,2.49,2.68,2.82,6.77,3.03h.15c3.59.23,9.44.6,9.44,5.97,0,4.98-4.92,6.76-9.52,6.76ZM226.52,156.41c1.76,1.64,4.59,3.64,9.36,3.64,4.21,0,8.71-1.56,8.71-5.95,0-4.61-5.17-4.94-8.59-5.15h-.23c-3.53-.2-7.54-.41-7.54-3.85s3.56-4.61,6.6-4.61c3.97,0,6.56,1.67,7.6,2.48l.41-.47c-1.66-1.28-4.52-2.56-7.95-2.56s-7.43,1.38-7.43,5.28c0,3.69,3.68,4.17,8.49,4.42,3.14.2,7.87.5,7.87,4.64,0,3.22-3.04,5.22-7.92,5.22-4.46,0-7.23-1.96-8.97-3.57l-.42.47Z"/>
  </g>
  <g>
    <polygon class="cls-1" points="66.2 139.98 64.54 139.98 55.24 160.02 56.87 160.02 60.03 153.12 60.61 151.86 65.24 141.76 65.43 141.76 70.03 151.86 70.62 153.12 73.78 160.02 75.49 160.02 66.2 139.98"/>
    <path class="cls-1" d="M76.13,160.43h-2.61l-8.18-17.9-8.21,17.9h-2.52l9.67-20.85h2.17l9.67,20.85ZM74.04,159.62h.83l-8.93-19.24h-1.14l-8.93,19.24h.74l8.38-18.26h.7l8.35,18.26Z"/>
  </g>
  <g>
    <g>
      <polygon class="cls-1" points="161.15 141.36 161.15 139.98 145.25 139.98 145.25 141.36 146.82 141.36 161.15 141.36"/>
      <path class="cls-1" d="M161.55,141.76h-16.71v-2.19h16.71v2.19ZM145.65,140.96h15.1v-.58h-15.1v.58Z"/>
    </g>
    <g>
      <polygon class="cls-1" points="155.5 150.05 155.5 148.67 146.82 148.67 145.25 148.67 145.25 150.05 146.82 150.05 155.5 150.05"/>
      <path class="cls-1" d="M155.9,150.45h-11.06v-2.19h11.06v2.19ZM145.65,149.65h9.45v-.58h-9.45v.58Z"/>
    </g>
    <g>
      <polygon class="cls-1" points="146.82 158.64 145.25 158.64 145.25 160.02 161.79 160.02 161.79 158.64 146.82 158.64"/>
      <path class="cls-1" d="M162.2,160.43h-17.35v-2.19h17.35v2.19ZM145.65,159.62h15.74v-.58h-15.74v.58Z"/>
    </g>
  </g>
</svg>