<?xml version="1.0" encoding="UTF-8"?>
<svg id="Layer_1" data-name="Layer 1" xmlns="http://www.w3.org/2000/svg" viewBox="0 0 300 300">
  <defs>
    <style>
      .cls-1 {
        fill: #010001;
      }
    </style>
  </defs>
  <path class="cls-1" d="M246.05,230.53H53.33l96.36-163.11,96.36,163.11ZM55.26,229.42h188.85l-94.43-159.83L55.26,229.42Z"/>
  <path class="cls-1" d="M57.16,230.32l88.46-159.53,96.29,154.6-184.74,4.93ZM145.67,72.96L59.06,229.16l180.88-4.83-94.28-151.37Z"/>
  <path class="cls-1" d="M60.98,230.11l80.55-155.95,96.21,146.09-.96.05-175.81,9.81ZM141.65,76.34L62.85,228.9l172.92-9.65-94.12-142.91Z"/>
  <path class="cls-1" d="M64.81,229.9l.42-.87,72.22-151.51,96.15,137.58-.95.08-167.83,14.72ZM137.63,79.71l-70.99,148.92,164.96-14.47-93.97-134.46Z"/>
  <path class="cls-1" d="M68.64,229.7l.39-.89,64.33-147.92,96.08,129.06-.94.12-159.86,19.63ZM133.62,83.09l-63.19,145.28,157-19.28-93.81-126.01Z"/>
  <path class="cls-1" d="M72.48,229.5l56.8-145.23,96.02,120.53-.93.15-151.88,24.54ZM129.61,86.46l-55.39,141.64,149.04-24.09-93.65-117.56Z"/>
  <path class="cls-1" d="M76.32,229.3l48.87-141.65,95.96,112-.92.19-143.91,29.46ZM125.6,89.83l-47.61,138,141.09-28.89-93.48-109.12Z"/>
  <path class="cls-1" d="M80.16,229.1l40.93-138.08,95.9,103.47-.9.23-135.93,34.38ZM121.6,93.19l-39.83,134.36,133.14-33.68-93.32-100.68Z"/>
  <path class="cls-1" d="M84.01,228.91l32.98-134.51,95.85,94.93-128.83,39.58ZM117.6,96.56l-32.05,130.72,125.2-38.47-93.15-92.26Z"/>
  <path class="cls-1" d="M87.86,228.72l25.02-130.93,95.79,86.37-120.82,44.56ZM113.6,99.92l-24.29,127.08,117.27-43.25-92.98-83.84Z"/>
  <path class="cls-1" d="M91.72,228.53l17.06-127.35,95.74,77.81-112.8,49.54ZM109.61,103.27l-16.54,123.45,109.34-48.02-92.81-75.43Z"/>
  <path class="cls-1" d="M95.58,228.34l9.08-123.77,95.69,69.24-104.77,54.53ZM105.62,106.62l-8.79,119.82,101.43-52.79-92.64-67.03Z"/>
</svg>