<?xml version="1.0" encoding="UTF-8"?>
<svg id="Layer_1" data-name="Layer 1" xmlns="http://www.w3.org/2000/svg" viewBox="0 0 300 300">
  <defs>
    <style>
      .cls-1 {
        fill: #010001;
      }

      .cls-2 {
        fill: #1f1e21;
      }
    </style>
  </defs>
  <g>
    <path class="cls-1" d="M246.05,212.83H53.33L149.69,49.72l96.36,163.11ZM55.26,211.72h188.85L149.69,51.89,55.26,211.72Z"/>
    <path class="cls-1" d="M57.16,212.62L145.61,53.09l96.29,154.6-184.74,4.93ZM145.67,55.26L59.06,211.46l180.88-4.83L145.67,55.26Z"/>
    <path class="cls-1" d="M60.98,212.41L141.53,56.46l96.21,146.09-.96.05-175.81,9.81ZM141.65,58.64L62.85,211.2l172.92-9.65L141.65,58.64Z"/>
    <path class="cls-1" d="M64.81,212.2l.42-.87L137.45,59.83l96.15,137.58-.95.08-167.83,14.72ZM137.63,62.01l-70.99,148.92,164.96-14.47L137.63,62.01Z"/>
    <path class="cls-1" d="M68.64,212l.39-.89L133.37,63.2l96.08,129.06-.94.12-159.86,19.63ZM133.62,65.39l-63.19,145.28,157-19.28-93.81-126.01Z"/>
    <path class="cls-1" d="M72.48,211.8l56.8-145.23,96.02,120.53-.93.15-151.88,24.54ZM129.61,68.76l-55.39,141.64,149.04-24.09-93.65-117.56Z"/>
    <path class="cls-1" d="M76.32,211.6l48.87-141.65,95.96,112-.92.19-143.91,29.46ZM125.6,72.13l-47.61,138,141.09-28.89-93.48-109.12Z"/>
    <path class="cls-1" d="M80.16,211.4l40.93-138.08,95.9,103.47-.9.23-135.93,34.38ZM121.6,75.49l-39.83,134.36,133.14-33.68-93.32-100.68Z"/>
    <path class="cls-1" d="M84.01,211.21l32.98-134.51,95.85,94.93-128.83,39.58ZM117.6,78.86l-32.05,130.72,125.2-38.47-93.15-92.26Z"/>
    <path class="cls-1" d="M87.86,211.02l25.02-130.93,95.79,86.37-120.82,44.56ZM113.6,82.22l-24.29,127.08,117.27-43.25-92.98-83.84Z"/>
    <path class="cls-1" d="M91.72,210.83l17.06-127.35,95.74,77.81-112.8,49.54ZM109.61,85.57l-16.54,123.45,109.34-48.02-92.81-75.43Z"/>
    <path class="cls-1" d="M95.58,210.64l9.08-123.77,95.69,69.24-104.77,54.53ZM105.62,88.92l-8.79,119.82,101.43-52.79-92.64-67.03Z"/>
  </g>
  <g>
    <g>
      <path class="cls-2" d="M101.17,232.21c-1.29-1.13-3.93-2.64-7.64-2.64-2.85,0-6.2,1.07-6.2,4.2s3.78,3.25,7.31,3.44c3.44.21,9.05.52,9.05,5.56,0,4.42-4.27,6.35-9.11,6.35s-7.89-2.06-9.91-4.02l.95-1.07c1.78,1.72,4.54,3.75,8.99,3.75,4.05,0,7.52-1.5,7.52-4.82,0-3.65-4.14-4.02-7.49-4.23-4.17-.21-8.87-.49-8.87-4.82s4.36-5.68,7.83-5.68c3.99,0,7.06,1.66,8.53,2.92l-.95,1.07Z"/>
      <path class="cls-2" d="M94.57,249.52c-5.32,0-8.37-2.36-10.2-4.13l-.28-.27,1.48-1.68.3.29c1.62,1.56,4.28,3.63,8.72,3.63,3.44,0,7.12-1.16,7.12-4.42s-3.36-3.59-7.11-3.83c-4.12-.21-9.25-.48-9.25-5.22,0-4.49,4.43-6.08,8.23-6.08s7.08,1.56,8.79,3.01l.31.27-1.49,1.68-.3-.27c-.68-.6-3.21-2.54-7.38-2.54-2.67,0-5.8,1-5.8,3.8,0,2.49,2.68,2.82,6.77,3.03h.15c3.59.23,9.44.6,9.44,5.97,0,4.98-4.92,6.76-9.52,6.76ZM85.22,245.08c1.76,1.64,4.59,3.64,9.36,3.64,4.21,0,8.71-1.56,8.71-5.95,0-4.61-5.17-4.94-8.59-5.15h-.24c-3.53-.2-7.53-.41-7.53-3.85s3.56-4.61,6.6-4.61c3.97,0,6.56,1.67,7.6,2.48l.41-.47c-1.66-1.28-4.52-2.56-7.95-2.56s-7.43,1.38-7.43,5.28c0,3.69,3.68,4.17,8.49,4.42,3.14.2,7.87.5,7.87,4.64,0,3.22-3.04,5.22-7.92,5.22-4.46,0-7.23-1.96-8.97-3.57l-.42.47Z"/>
    </g>
    <g>
      <path class="cls-2" d="M115.89,248.69v-20.04h10.5c2.33,0,4.05.58,5.34,1.93.98,1.01,1.5,2.27,1.5,3.65,0,1.5-.64,2.88-1.69,3.9-1.23,1.2-2.95,1.72-5.16,1.72h-8.93v8.84h-1.57ZM117.45,230.03v8.44h8.93c1.5,0,2.91-.24,4.02-1.32.8-.8,1.26-1.81,1.26-2.91,0-1.01-.37-1.93-1.13-2.73-.98-1.07-2.33-1.47-4.14-1.47h-8.93Z"/>
      <path class="cls-2" d="M117.85,249.09h-2.37v-20.85h10.9c2.5,0,4.29.65,5.63,2.06,1.06,1.09,1.61,2.45,1.61,3.93,0,1.57-.64,3.05-1.81,4.19-1.26,1.23-3.04,1.83-5.44,1.83h-8.53v8.84ZM116.29,248.29h.76v-8.84h9.34c2.17,0,3.77-.53,4.87-1.61,1.01-.98,1.57-2.26,1.57-3.61,0-1.27-.48-2.44-1.39-3.37-1.18-1.24-2.79-1.81-5.05-1.81h-10.1v19.24ZM126.38,238.87h-9.34v-9.25h9.34c2.03,0,3.44.51,4.44,1.6.82.86,1.24,1.87,1.24,3.01,0,1.19-.48,2.3-1.38,3.2-1.31,1.27-2.99,1.44-4.3,1.44ZM117.85,238.07h8.53c1.75,0,2.87-.36,3.74-1.21.74-.74,1.14-1.65,1.14-2.63,0-.92-.34-1.75-1.02-2.46-.86-.94-2.04-1.35-3.85-1.35h-8.53v7.63Z"/>
    </g>
    <g>
      <path class="cls-2" d="M190.78,245.34c-2.21,2.15-5.43,3.78-9.24,3.78-6.32,0-11.05-4.7-11.05-10.47s4.76-10.44,10.99-10.44c3.47,0,6.69,1.32,8.87,3.32l-1.04,1.07c-1.96-1.84-4.88-3.01-7.8-3.01-5.34,0-9.39,4.11-9.39,9.05s4.08,9.08,9.45,9.08c3.25,0,6.14-1.44,8.17-3.41l1.04,1.01Z"/>
      <path class="cls-2" d="M181.54,249.52c-6.42,0-11.45-4.77-11.45-10.87s5-10.84,11.39-10.84c3.44,0,6.77,1.25,9.14,3.42l.31.28-1.61,1.65-.29-.27c-1.94-1.82-4.75-2.9-7.52-2.9-5.04,0-8.99,3.8-8.99,8.65s3.98,8.68,9.05,8.68c2.85,0,5.73-1.2,7.89-3.29l.28-.27,1.62,1.57-.3.29c-2.58,2.51-5.96,3.89-9.52,3.89ZM181.48,228.62c-5.93,0-10.58,4.41-10.58,10.03s4.68,10.06,10.65,10.06c4.22,0,7.14-2,8.65-3.38l-.46-.45c-2.27,2.07-5.23,3.25-8.16,3.25-5.53,0-9.86-4.17-9.86-9.49s4.3-9.46,9.8-9.46c2.84,0,5.71,1.06,7.78,2.85l.48-.49c-2.2-1.87-5.2-2.94-8.29-2.94Z"/>
    </g>
    <g>
      <path class="cls-2" d="M199.61,228.65h16.94v1.38h-7.67v18.66h-1.56v-18.66h-7.71v-1.38Z"/>
      <path class="cls-2" d="M209.28,249.09h-2.37v-18.66h-7.7v-2.19h17.75v2.19h-7.67v18.66ZM207.71,248.29h.76v-18.66h7.67v-.58h-16.14v.58h7.7v18.66Z"/>
    </g>
    <g>
      <path class="cls-2" d="M242.16,232.21c-1.29-1.13-3.93-2.64-7.64-2.64-2.85,0-6.2,1.07-6.2,4.2s3.78,3.25,7.31,3.44c3.44.21,9.05.52,9.05,5.56,0,4.42-4.27,6.35-9.11,6.35s-7.89-2.06-9.91-4.02l.95-1.07c1.78,1.72,4.54,3.75,8.99,3.75,4.05,0,7.52-1.5,7.52-4.82,0-3.65-4.14-4.02-7.49-4.23-4.17-.21-8.87-.49-8.87-4.82s4.36-5.68,7.83-5.68c3.99,0,7.06,1.66,8.53,2.92l-.95,1.07Z"/>
      <path class="cls-2" d="M235.57,249.52c-5.32,0-8.37-2.36-10.19-4.13l-.28-.27,1.48-1.68.3.29c1.62,1.56,4.28,3.63,8.71,3.63,3.44,0,7.12-1.16,7.12-4.42s-3.36-3.59-7.11-3.83c-4.12-.21-9.25-.48-9.25-5.22,0-4.49,4.43-6.08,8.23-6.08s7.09,1.56,8.79,3.01l.31.27-1.49,1.68-.3-.27c-.68-.6-3.21-2.54-7.38-2.54-2.67,0-5.8,1-5.8,3.8,0,2.49,2.68,2.82,6.77,3.03h.15c3.59.23,9.44.6,9.44,5.97,0,4.98-4.92,6.76-9.52,6.76ZM226.21,245.08c1.76,1.64,4.59,3.64,9.36,3.64,4.21,0,8.71-1.56,8.71-5.95,0-4.61-5.17-4.94-8.59-5.15h-.23c-3.53-.2-7.54-.41-7.54-3.85s3.56-4.61,6.6-4.61c3.97,0,6.56,1.67,7.6,2.48l.41-.47c-1.66-1.28-4.52-2.56-7.95-2.56s-7.43,1.38-7.43,5.28c0,3.69,3.68,4.17,8.49,4.42,3.14.2,7.87.5,7.87,4.64,0,3.22-3.04,5.22-7.92,5.22-4.46,0-7.23-1.96-8.97-3.57l-.42.47Z"/>
    </g>
    <g>
      <polygon class="cls-2" points="65.88 228.65 64.23 228.65 54.93 248.69 56.55 248.69 59.72 241.79 60.3 240.53 64.93 230.43 65.12 230.43 69.72 240.53 70.31 241.79 73.47 248.69 75.18 248.69 65.88 228.65"/>
      <path class="cls-2" d="M75.81,249.09h-2.61l-8.18-17.9-8.21,17.9h-2.52l9.67-20.85h2.17l9.67,20.85ZM73.73,248.29h.83l-8.93-19.24h-1.14l-8.93,19.24h.74l8.38-18.26h.7l8.35,18.26Z"/>
    </g>
    <g>
      <g>
        <polygon class="cls-2" points="160.84 230.03 160.84 228.65 144.94 228.65 144.94 230.03 146.51 230.03 160.84 230.03"/>
        <path class="cls-2" d="M161.24,230.43h-16.71v-2.19h16.71v2.19ZM145.34,229.63h15.1v-.58h-15.1v.58Z"/>
      </g>
      <g>
        <polygon class="cls-2" points="155.19 238.72 155.19 237.33 146.51 237.33 144.94 237.33 144.94 238.72 146.51 238.72 155.19 238.72"/>
        <path class="cls-2" d="M155.59,239.12h-11.06v-2.19h11.06v2.19ZM145.34,238.31h9.45v-.58h-9.45v.58Z"/>
      </g>
      <g>
        <polygon class="cls-2" points="146.51 247.31 144.94 247.31 144.94 248.69 161.48 248.69 161.48 247.31 146.51 247.31"/>
        <path class="cls-2" d="M161.89,249.09h-17.35v-2.19h17.35v2.19ZM145.34,248.29h15.74v-.58h-15.74v.58Z"/>
      </g>
    </g>
  </g>
</svg>